<?xml version="1.0" encoding="UTF-8" standalone="no"?>
<!-- Created with Inkscape (http://www.inkscape.org/) -->

<svg
   width="104mm"
   height="75mm"
   viewBox="0 0 104 75"
   version="1.1"
   id="svg5"
   inkscape:version="1.1.2 (0a00cf5339, 2022-02-04)"
   sodipodi:docname="WOW.svg"
   xmlns:inkscape="http://www.inkscape.org/namespaces/inkscape"
   xmlns:sodipodi="http://sodipodi.sourceforge.net/DTD/sodipodi-0.dtd"
   xmlns="http://www.w3.org/2000/svg"
   xmlns:svg="http://www.w3.org/2000/svg">
  <sodipodi:namedview
     id="namedview7"
     pagecolor="#ffffff"
     bordercolor="#666666"
     borderopacity="1.0"
     inkscape:pageshadow="2"
     inkscape:pageopacity="0.0"
     inkscape:pagecheckerboard="0"
     inkscape:document-units="mm"
     showgrid="false"
     width="104mm"
     height="75mm"
     inkscape:zoom="0.67024358"
     inkscape:cx="357.33278"
     inkscape:cy="324.50889"
     inkscape:window-width="1366"
     inkscape:window-height="704"
     inkscape:window-x="0"
     inkscape:window-y="27"
     inkscape:window-maximized="1"
     inkscape:current-layer="layer1" />
  <defs
     id="defs2" />
  <g
     inkscape:label="Layer 1"
     inkscape:groupmode="layer"
     id="layer1">
    <g
       id="g27193"
       transform="matrix(0.99283632,0,0,0.99909397,-28.840983,-103.68414)">
      <g
         id="g27029"
         transform="matrix(0.78308264,0,0,0.78308264,18.179713,36.528674)">
        <path
           style="fill:#aa0000;fill-opacity:1;stroke:none;stroke-width:0.264583px;stroke-linecap:butt;stroke-linejoin:miter;stroke-opacity:1"
           d="M 102.93944,90.159754 C 73.871258,76.410047 39.947176,110.58435 62.333062,140.84039 l 9.550011,-0.36674 C 55.678388,107.12844 68.745249,91.345286 102.93944,90.159754 Z"
           id="path224"
           sodipodi:nodetypes="cccc" />
        <path
           style="fill:#000000;stroke:#000000;stroke-width:0.264583px;stroke-linecap:butt;stroke-linejoin:miter;stroke-opacity:1"
           d="m 50.98847,127.04007 c -8.081556,1.51 -6.176481,10.92798 -6.176481,10.92798 10.429094,6.73798 39.007316,6.19961 55.371551,-1.99825 -17.796605,11.33315 -63.251796,27.97299 -65.825114,2.2241 2.960196,-8.55056 9.151038,-10.06063 16.630044,-11.15383 z"
           id="path1570"
           sodipodi:nodetypes="ccccc" />
        <path
           style="fill:#000000;stroke:#000000;stroke-width:0.264583px;stroke-linecap:butt;stroke-linejoin:miter;stroke-opacity:1"
           d="m 117.86237,144.45213 c -10.91374,17.8653 -34.925349,14.03853 -48.647456,7.7434 l 13.186283,-3.74436 c 12.278301,5.26869 25.486303,3.48458 35.461173,-3.99904 z"
           id="path5158"
           sodipodi:nodetypes="cccc" />
        <path
           style="fill:#aa0000;stroke:none;stroke-width:0.264583px;stroke-linecap:butt;stroke-linejoin:miter;stroke-opacity:1"
           d="m 78.058448,140.28151 c -29.135801,-18.03149 41.270692,-28.15277 55.315862,-32.47994 -16.1958,8.58252 -22.84878,8.02125 -40.40245,14.42347 0,0 -22.490784,9.62462 -14.913412,18.05647 z"
           id="path6732"
           sodipodi:nodetypes="cccc" />
        <path
           style="fill:#000000;stroke:#000000;stroke-width:0.264583px;stroke-linecap:butt;stroke-linejoin:miter;stroke-opacity:1"
           d="m 76.992558,118.5528 9.162077,-2.65724 -4.77878,-14.60909 -7.76437,-0.98514 z"
           id="path9978" />
        <path
           style="fill:#000000;stroke:#000000;stroke-width:0.264583px;stroke-linecap:butt;stroke-linejoin:miter;stroke-opacity:1"
           d="m 94.327402,103.91705 -2.462181,11.63476 8.407179,-2.54095 z"
           id="path9980" />
        <path
           style="fill:#000000;stroke:#000000;stroke-width:0.264583px;stroke-linecap:butt;stroke-linejoin:miter;stroke-opacity:1"
           d="m 107.78886,109.63806 3.66926,-11.781921 11.24898,0.203547 -4.772,11.234784 -10.75407,2.03789 z"
           id="path9982" />
        <path
           style="fill:#000000;stroke:#000000;stroke-width:0.264583px;stroke-linecap:butt;stroke-linejoin:miter;stroke-opacity:1"
           d="m 100.33765,124.58874 7.04556,12.10346 8.07851,-18.88175 -12.2889,2.97985 z"
           id="path9984" />
        <path
           style="fill:#000000;stroke:#000000;stroke-width:0.264583px;stroke-linecap:butt;stroke-linejoin:miter;stroke-opacity:1"
           d="m 88.684213,126.53046 -5.158894,11.23374 -3.291067,-4.259 z"
           id="path9986" />
      </g>
      <g
         aria-label="WORLD OF WORK"
         id="text19445"
         style="font-size:14.1111px;line-height:1.25;font-family:aakar;-inkscape-font-specification:'aakar, Normal';stroke-width:0.264583">
        <path
           d="m 41.881116,155.8096 -0.215883,0.14814 q -0.356673,-0.37362 -0.629139,-0.45405 -0.253306,-0.0769 -0.679944,0.0321 -1.279914,0.3268 -2.746524,0.69816 -1.90461,0.48808 -2.845219,0.74917 -1.515623,0.4217 -2.767913,0.81311 l -0.116959,-0.17043 q 0.450486,-0.60998 1.121983,-1.55547 0.472544,-0.67526 1.316038,-1.90591 0.284952,-0.41282 1.120648,-1.65484 l -6.007018,1.54847 -0.116959,-0.17044 q 0.999,-1.32065 2.484804,-3.3932 1.245634,-1.74061 2.111852,-2.98685 0.408602,-0.59796 0.576367,-0.91364 0.324167,-0.62357 -0.0501,-1.16896 l 0.215883,-0.14815 1.910335,2.78375 -0.215883,0.14815 q -0.506823,-0.73854 -0.89314,-0.47344 -0.124985,0.0858 -0.200288,0.17088 -0.0753,0.0851 -0.213881,0.29719 l -3.1494,4.56795 4.038467,-0.98308 0.674394,-1.01433 q 0.494601,-0.74053 0.524684,-1.06201 0.03008,-0.32148 -0.289606,-0.78733 l 0.215883,-0.14815 2.081876,3.03372 -0.215883,0.14815 q -0.265108,-0.38632 -0.446676,-0.52913 -0.312787,-0.2366 -0.585481,-0.0495 -0.102261,0.0702 -0.301214,0.34041 -0.179794,0.2738 -0.374516,0.57456 l -2.845288,4.15869 4.826467,-1.22299 q 0.247739,-0.053 0.506174,-0.16352 0.266231,-0.0991 0.436665,-0.21609 0.295419,-0.20273 0.26869,-0.48523 -0.01893,-0.27113 -0.284039,-0.65744 l 0.215883,-0.14815 z"
           id="path27130" />
        <path
           d="m 38.246518,164.45172 q -1.436638,-1.26692 -1.548965,-3.05633 -0.117211,-1.86721 1.304664,-3.47956 1.485676,-1.68469 3.414899,-1.74721 1.743837,-0.0607 3.118462,1.15159 1.38496,1.22135 1.541639,2.93964 0.179224,1.92189 -1.315567,3.61692 -1.421874,1.61234 -3.278749,1.73867 -1.779074,0.12144 -3.236383,-1.16372 z m 0.328125,-0.37208 q 0.940533,0.82943 2.185908,0.6048 1.419204,-0.25506 2.831964,-1.85707 1.440103,-1.63301 1.484683,-3.10032 0.03978,-1.23268 -0.869745,-2.03476 -0.909526,-0.80208 -2.127557,-0.60846 -1.450211,0.22772 -2.890315,1.86073 -1.41276,1.60201 -1.488346,3.04197 -0.06712,1.26369 0.873408,2.09311 z"
           id="path27132" />
        <path
           d="m 50.129709,171.93415 -0.132318,0.22593 -1.914477,-1.12122 -0.685146,-5.31994 -0.665905,-0.38999 -1.38586,2.36634 q -0.369098,0.63023 -0.311158,0.96759 0.0768,0.33243 0.754591,0.72938 l -0.132318,0.22594 -3.293851,-1.92907 0.132319,-0.22593 q 0.677796,0.39696 1.021265,0.24678 0.261084,-0.11858 0.692859,-0.85583 l 3.015465,-5.14888 q 0.376062,-0.64212 0.311158,-0.96759 -0.05301,-0.3185 -0.695136,-0.69456 l 0.132319,-0.22593 3.281959,1.9221 q 1.165334,0.68248 1.700626,1.4591 0.811348,1.17784 0.101007,2.39073 -0.47356,0.8086 -1.270409,0.99668 -0.777993,0.18316 -2.051863,-0.25947 l 0.687656,4.44308 q 0.05879,0.4177 0.201156,0.69271 0.149326,0.26312 0.506061,0.47205 z m -1.440928,-9.94664 -1.713174,2.92523 q 1.177225,0.68945 1.89221,0.80476 1.252456,0.2065 1.907083,-0.91127 0.466596,-0.7967 0.180166,-1.50743 -0.267576,-0.71564 -1.278324,-1.30759 -0.463756,-0.2716 -0.655198,-0.27194 -0.179552,0.007 -0.332763,0.26824 z"
           id="path27134" />
        <path
           d="m 57.179133,165.11508 -0.09374,0.24447 q -0.694817,-0.2664 -1.036026,-0.14633 -0.323408,0.11213 -0.604617,0.84555 l -2.333534,6.08609 q -0.138137,0.36027 0.05893,0.53914 0.202005,0.16601 1.038359,0.48668 1.634108,0.62656 2.276191,0.60709 0.908224,-0.0207 1.876783,-1.00716 l 0.321675,0.12334 -1.476041,2.00205 -6.92244,-2.65421 0.09374,-0.24447 q 0.643349,0.24667 0.958824,0.11673 0.333276,-0.13787 0.604617,-0.84555 l 2.190463,-5.71294 q 0.281209,-0.73342 0.128538,-1.0281 -0.147736,-0.30754 -0.803953,-0.55915 l 0.09374,-0.24447 z"
           id="path27136" />
        <path
           d="m 58.212944,175.29171 0.05435,-0.25612 q 0.75489,0.1602 1.022064,-0.0367 0.267175,-0.19687 0.421651,-0.9248 l 1.270137,-5.9852 q 0.163058,-0.76837 -0.0069,-1.02982 -0.153572,-0.27207 -0.921942,-0.43513 l 0.05435,-0.25613 3.639648,0.77238 q 2.493833,0.52923 3.661197,1.93211 1.233941,1.48745 0.764792,3.6982 -0.363305,1.71198 -1.650157,2.66449 -1.703955,1.25843 -4.480871,0.66913 z m 4.237585,-7.35586 -1.453219,6.84793 q -0.07152,0.33701 0.06736,0.47918 0.138877,0.14217 0.624163,0.24515 0.876212,0.18595 1.484466,0.17415 1.216509,-0.0236 2.050715,-0.63544 1.098521,-0.79525 1.476129,-2.57463 0.197386,-0.93014 0.0745,-1.7451 -0.120025,-0.82844 -0.678784,-1.58095 -0.436223,-0.59971 -0.999921,-0.93064 -0.700538,-0.41632 -1.900274,-0.67092 -0.417885,-0.0887 -0.587015,0.0445 -0.100906,0.0772 -0.158119,0.3468 z"
           id="path27138" />
        <path
           d="m 79.741679,177.736 q -1.912724,0.10256 -3.24658,-1.09554 -1.391849,-1.25018 -1.506949,-3.39684 -0.120266,-2.24298 1.212485,-3.63925 1.201785,-1.26506 3.031945,-1.36319 1.843921,-0.0989 3.159589,1.01741 1.474413,1.24576 1.595416,3.50249 0.115101,2.14666 -1.121326,3.53777 -1.184335,1.33312 -3.12458,1.43715 z m -0.02656,-0.49538 q 1.252215,-0.0671 1.983446,-1.09996 0.833938,-1.17633 0.719575,-3.30922 -0.116576,-2.17418 -1.112798,-3.25238 -0.835265,-0.90742 -2.046198,-0.84249 -1.210933,0.0649 -1.944378,1.05646 -0.875219,1.17854 -0.758643,3.35272 0.114363,2.13289 1.069303,3.2133 0.837478,0.94871 2.089693,0.88157 z"
           id="path27140" />
        <path
           d="m 90.625221,172.88342 -0.311819,0.0568 q -0.259082,-0.80725 -0.59932,-0.9834 -0.326681,-0.17862 -1.126565,-0.0329 l -1.970753,0.33092 0.540761,2.96906 q 0.138277,0.75921 0.424286,0.94524 0.286009,0.18603 1.031663,0.0502 l 0.04691,0.25759 -3.796056,0.69138 -0.04691,-0.25759 q 0.745654,-0.13581 0.915656,-0.4329 0.170002,-0.2971 0.01444,-1.15121 l -1.069176,-5.87033 q -0.140746,-0.77277 -0.424286,-0.94524 -0.286009,-0.18603 -0.977433,-0.0601 l -0.04692,-0.25759 7.198949,-1.31116 0.393772,1.93129 -0.338934,0.0617 q -0.312099,-0.86762 -0.752178,-1.0536 -0.42899,-0.20201 -1.567807,0.005 l -1.843798,0.33582 q -0.271147,0.0494 -0.337676,0.14554 -0.06653,0.0962 -0.01221,0.39442 l 0.548168,3.00973 1.965815,-0.35803 q 0.826998,-0.15063 1.053698,-0.44404 0.237789,-0.30945 0.203033,-1.11553 l 0.311819,-0.0568 z m 0,0 -0.311819,0.0568 q -0.259082,-0.80725 -0.59932,-0.9834 -0.326681,-0.17862 -1.126565,-0.0329 l -1.965814,0.35803 0.535822,2.94195 q 0.138277,0.75921 0.424286,0.94524 0.286009,0.18603 1.031663,0.0502 l 0.04691,0.25759 -3.796056,0.69138 -0.04691,-0.25759 q 0.745654,-0.13581 0.915656,-0.4329 0.170002,-0.2971 0.01444,-1.15121 l -1.069176,-5.87033 q -0.140746,-0.77277 -0.424286,-0.94524 -0.286009,-0.18603 -0.977433,-0.0601 l -0.04692,-0.25759 7.198949,-1.31116 0.3531,1.9387 -0.298262,0.0543 q -0.312099,-0.86762 -0.752178,-1.0536 -0.42899,-0.20201 -1.567807,0.005 l -1.843798,0.33582 q -0.271147,0.0494 -0.337676,0.14554 -0.06653,0.0962 -0.01221,0.39442 l 0.548168,3.00973 1.965815,-0.35803 q 0.826998,-0.15063 1.053698,-0.44404 0.237789,-0.30945 0.203033,-1.11553 l 0.311819,-0.0568 z"
           id="path27142" />
        <path
           d="m 107.11588,160.49396 0.1059,0.23945 q -0.43287,0.28184 -0.56206,0.53486 -0.12216,0.23484 -0.0936,0.67423 0.0857,1.3182 0.18089,2.82809 0.12931,1.9619 0.21288,2.93449 0.13563,1.56734 0.28994,2.87027 l -0.18904,0.0836 q -0.51668,-0.55503 -1.32248,-1.38903 -0.57678,-0.58872 -1.63122,-1.64424 -0.35334,-0.35605 -1.42039,-1.406 l 0.41677,6.18937 -0.18905,0.0836 q -1.1143,-1.22494 -2.87808,-3.06671 -1.481696,-1.54463 -2.547287,-2.62537 -0.512561,-0.51164 -0.791988,-0.73463 -0.553281,-0.43337 -1.158222,-0.16583 l -0.105897,-0.23946 3.087719,-1.36552 0.105898,0.23945 q -0.819191,0.36228 -0.62969,0.79078 0.06131,0.13864 0.131104,0.22831 0.06979,0.0897 0.252765,0.26491 l 3.910478,3.93612 -0.22323,-4.1504 -0.87292,-0.84952 q -0.63689,-0.62241 -0.94735,-0.71113 -0.310451,-0.0887 -0.827172,0.1398 l -0.105898,-0.23946 3.36498,-1.48814 0.1059,0.23946 q -0.4285,0.1895 -0.60228,0.34169 -0.29011,0.26391 -0.15635,0.56638 0.0502,0.11343 0.27918,0.35871 0.23604,0.2271 0.49584,0.47384 l 3.56417,3.56189 -0.31407,-4.96909 q -0.007,-0.25327 -0.0676,-0.52762 -0.0485,-0.27993 -0.13206,-0.46897 -0.14491,-0.32768 -0.4275,-0.35338 -0.26999,-0.0313 -0.69849,0.15822 l -0.10589,-0.23946 z"
           id="path27144" />
        <path
           d="m 115.21888,166.14364 q -1.61409,1.03139 -3.36505,0.64572 -1.82709,-0.40244 -2.98462,-2.21393 -1.20947,-1.89277 -0.73736,-3.76438 0.42277,-1.6929 1.96718,-2.67977 1.55603,-0.99429 3.25086,-0.67087 1.89676,0.35791 3.11365,2.2623 1.15753,1.81149 0.7667,3.63116 -0.37406,1.74354 -2.01136,2.78977 z m -0.26713,-0.41803 q 1.05671,-0.67523 1.18435,-1.93425 0.14635,-1.43449 -1.00376,-3.23437 -1.17237,-1.83472 -2.57044,-2.28235 -1.17388,-0.37829 -2.19574,0.27467 -1.02187,0.65297 -1.17178,1.87715 -0.18118,1.45676 0.99119,3.29147 1.15011,1.79988 2.51335,2.26977 1.19613,0.41313 2.25283,-0.26209 z"
           id="path27146" />
        <path
           d="m 126.08718,157.23208 0.16856,0.20035 -1.69774,1.4283 -5.2421,-1.13645 -0.59052,0.4968 1.76541,2.09845 q 0.47019,0.55888 0.80746,0.61729 0.33895,0.039 0.94002,-0.46667 l 0.16855,0.20035 -2.92095,2.45739 -0.16856,-0.20036 q 0.60106,-0.50567 0.57461,-0.8796 -0.0243,-0.28572 -0.5743,-0.93951 l -3.84133,-4.56597 q -0.47905,-0.56943 -0.80746,-0.6173 -0.31786,-0.0567 -0.88729,0.42232 l -0.16856,-0.20036 2.91042,-2.44851 q 1.03341,-0.8694 1.94446,-1.11362 1.38158,-0.36994 2.28646,0.70565 0.60326,0.71706 0.51355,1.53087 -0.088,0.7944 -0.93179,1.84641 l 4.41673,0.84037 q 0.41327,0.0845 0.72008,0.0425 0.29794,-0.0526 0.61429,-0.3187 z m -9.85467,-1.97414 2.18237,2.59407 q 1.04395,-0.87828 1.3921,-1.51333 0.61411,-1.11093 -0.2198,-2.10215 -0.59439,-0.70652 -1.36,-0.6747 -0.76393,0.0124 -1.66025,0.76646 -0.41126,0.34599 -0.4757,0.52626 -0.0539,0.1714 0.14128,0.40339 z"
           id="path27148" />
        <path
           d="m 123.62061,147.20985 -0.19416,-0.17566 2.42218,-2.67739 0.19416,0.17565 q -0.44376,0.49052 -0.54204,0.86618 -0.10849,0.36641 -0.0661,1.40823 l 0.16464,3.67967 4.70884,-0.0698 q 2.00967,-0.003 2.55512,-0.60593 l 0.19416,0.17565 -2.81971,3.11681 -0.19416,-0.17565 q 0.3513,-0.38832 0.4058,-0.4691 0.19025,-0.29246 -0.0141,-0.47736 -0.25548,-0.23112 -1.77854,-0.25246 -0.47833,-0.005 -1.14011,0.0278 l -2.05297,0.11249 -0.0258,0.45984 1.91097,1.72881 q 0.56204,0.50848 0.89391,0.51138 0.32164,-0.006 0.85785,-0.59905 l 0.19416,0.17566 -2.60708,2.88177 -0.19416,-0.17565 q 0.53621,-0.59271 0.48996,-0.93187 -0.0462,-0.33915 -0.69004,-0.92159 l -4.42485,-4.00307 q -0.58249,-0.52696 -0.9124,-0.49094 -0.34014,0.0268 -0.83937,0.57861 l -0.19416,-0.17565 2.62557,-2.90222 0.19417,0.17566 q -0.53621,0.5927 -0.51965,0.92359 0.0166,0.33089 0.58882,0.84861 l 2.09491,1.89522 q 0.003,-3.24905 -0.0328,-3.96921 -0.0521,-0.8462 -0.30758,-1.07733 -0.19417,-0.17565 -0.39416,-0.0778 -0.19998,0.0978 -0.55129,0.48614 z"
           id="path27150" />
      </g>
    </g>
    <ellipse
       style="fill:none;fill-opacity:1;stroke:none;stroke-width:0.287728"
       id="path26731"
       cx="-21.346495"
       cy="146.75066"
       transform="matrix(-0.8962293,0.44359107,0.44359107,0.8962293,0,0)"
       rx="63.314072"
       ry="53.51461" />
  </g>
</svg>
